<svg xmlns:xlink="http://www.w3.org/1999/xlink" width="512" xmlns="http://www.w3.org/2000/svg" height="512" id="screenshot-bc96fe44-571b-80b0-8002-4f49f57bf158" viewBox="0 0 512 512" style="-webkit-print-color-adjust: exact;" fill="none" version="1.1"><g id="shape-bc96fe44-571b-80b0-8002-4f49f57bf158"><defs><clipPath class="frame-clip-def frame-clip" id="frame-clip-bc96fe44-571b-80b0-8002-4f49f57bf158-rumext-id-1"><rect rx="0" ry="0" x="0" y="0" width="512" height="512" transform="matrix(1.000000, 0.000000, 0.000000, 1.000000, 0.000000, 0.000000)"/></clipPath></defs><g clip-path="url(#frame-clip-bc96fe44-571b-80b0-8002-4f49f57bf158-rumext-id-1)"><clipPath class="frame-clip-def frame-clip" id="frame-clip-bc96fe44-571b-80b0-8002-4f49f57bf158-rumext-id-1"><rect rx="0" ry="0" x="0" y="0" width="512" height="512" transform="matrix(1.000000, 0.000000, 0.000000, 1.000000, 0.000000, 0.000000)"/></clipPath><g class="fills" id="fills-bc96fe44-571b-80b0-8002-4f49f57bf158"><rect rx="0" ry="0" x="0" y="0" transform="matrix(1.000000, 0.000000, 0.000000, 1.000000, 0.000000, 0.000000)" width="512" height="512" class="frame-background"/></g><g class="frame-children"><g id="shape-bc96fe44-571b-80b0-8002-4f49f07840c9" width="80px" height="80px" version="1.1" xmlns:xlink="http://www.w3.org/1999/xlink" rx="0" ry="0" style="fill: rgb(0, 0, 0);"><g id="shape-bc96fe44-571b-80b0-8002-4f49f0792be1" rx="0" ry="0" style="fill: rgb(0, 0, 0);"><g id="shape-bc96fe44-571b-80b0-8002-4f49f07961f1" rx="0" ry="0" style="fill: rgb(0, 0, 0);"><g id="shape-bc96fe44-571b-80b0-8002-4f49f079ed43"><g class="fills" id="fills-bc96fe44-571b-80b0-8002-4f49f079ed43"><path fill-rule="evenodd" stroke="none" rx="0" ry="0" d="M255.616,506.316C336.017,506.316,401.310,462.182,447.169,403.307C480.257,360.827,506.231,313.678,506.231,255.658C506.231,117.223,394.027,5.000,255.616,5.000C191.451,5.000,120.387,16.585,76.054,56.252C24.755,102.150,5.000,181.399,5.000,255.658C5.000,394.093,117.204,506.316,255.616,506.316ZZ" style="fill: rgb(255, 52, 34);"/></g><g id="strokes-bc96fe44-571b-80b0-8002-4f49f079ed43" class="strokes"><g class="stroke-shape"><path fill-rule="evenodd" stroke="none" rx="0" ry="0" d="M255.616,506.316C336.017,506.316,401.310,462.182,447.169,403.307C480.257,360.827,506.231,313.678,506.231,255.658C506.231,117.223,394.027,5.000,255.616,5.000C191.451,5.000,120.387,16.585,76.054,56.252C24.755,102.150,5.000,181.399,5.000,255.658C5.000,394.093,117.204,506.316,255.616,506.316ZZ" style="fill: none; stroke-width: 1;"/></g></g></g></g></g></g></g></g></g></svg>